<?xml version="1.0" encoding="UTF-8"?>
<svg width="448px" height="448px" viewBox="0 0 448 448" version="1.1" xmlns="http://www.w3.org/2000/svg" xmlns:xlink="http://www.w3.org/1999/xlink">
    <!-- Generator: Sketch 61.2 (89653) - https://sketch.com -->
    <title>container</title>
    <desc>Created with Sketch.</desc>
    <g id="Symbols" stroke="none" stroke-width="1" fill="none" fill-rule="evenodd">
        <g id="container" fill="#2E3440" fill-rule="nonzero">
            <path d="M400,0 L48,0 C21.5,0 0,21.5 0,48 L0,400 C0,426.5 21.5,448 48,448 L400,448 C426.5,448 448,426.5 448,400 L448,48 C448,21.5 426.5,0 400,0 Z M394,400 L54,400 C50.7,400 48,397.3 48,394 L48,54 C48,50.7 50.7,48 54,48 L394,48 C397.3,48 400,50.7 400,54 L400,394 C400,397.3 397.3,400 394,400 Z M48,200 L400,200 L400,248 L48,248 L48,200 Z" id="Shape"></path>
        </g>
    </g>
</svg>